<?xml version="1.0"?>
<svg xmlns="http://www.w3.org/2000/svg" height="512px" viewBox="0 0 480 480" width="512px" class=""><g><path d="m312 72h-40v40c0 8.835938-7.164062 16-16 16h-160c-8.835938 0-16-7.164062-16-16v-40h-40c-17.671875 0-32 14.328125-32 32v336c0 17.671875 14.328125 32 32 32h272c17.671875 0 32-14.328125 32-32v-336c0-17.671875-14.328125-32-32-32zm0 0" fill="#a8dba8" data-original="#A8DBA8" class="" data-old_color="#a8dba8" style="fill:#AAB1BA"/><path d="m272 112v8c0 8.835938-7.164062 16-16 16h-160c-8.835938 0-16-7.164062-16-16v-8h-40c-8.835938 0-16 7.164062-16 16v312.078125c.042969 8.808594 7.195312 15.921875 16 15.921875h256c8.835938 0 16-7.164062 16-16v-328zm0 0" fill="#79bd9a" data-original="#79BD9A" class="active-path" data-old_color="#79bd9a" style="fill:#AAB1BA"/><path d="m272 104v8c0 8.835938-7.164062 16-16 16h-160c-8.835938 0-16-7.164062-16-16v-8h-40v336h272v-336zm0 0" fill="#cff09e" data-original="#CFF09E" class="" data-old_color="#cff09e" style="fill:#F2EDDA"/><path d="m80.71875 276.574219c-18.164062-38.992188-31.824219-79.925781-40.71875-122.015625v285.441406h156.160156c-48.875-46.332031-88.109375-101.871094-115.441406-163.425781zm0 0" fill="#a8dba8" data-original="#A8DBA8" class="" data-old_color="#a8dba8" style="fill:#AAB1BA"/><path d="m72 64h200c4.417969 0 8 3.582031 8 8v40c0 17.671875-14.328125 32-32 32h-152c-17.671875 0-32-14.328125-32-32v-40c0-4.417969 3.582031-8 8-8zm0 0" fill="#79bd9a" data-original="#79BD9A" class="active-path" data-old_color="#79bd9a" style="fill:#AAB1BA"/><path d="m96 48h160c8.835938 0 16 7.164062 16 16v48c0 8.835938-7.164062 16-16 16h-160c-8.835938 0-16-7.164062-16-16v-48c0-8.835938 7.164062-16 16-16zm0 0" fill="#a8dba8" data-original="#A8DBA8" class="" data-old_color="#a8dba8" style="fill:#AAB1BA"/><path d="m98.0625 48h-2.0625c-8.835938 0-16 7.164062-16 16v48c0 8.835938 7.164062 16 16 16h156c-77.910156 0-142.296875-34.695312-153.9375-80zm0 0" fill="#79bd9a" data-original="#79BD9A" class="active-path" data-old_color="#79bd9a" style="fill:#AAB1BA"/><path d="m252 128h4c.585938-.027344 1.167969-.085938 1.742188-.175781-1.917969.046875-3.796876.175781-5.742188.175781zm0 0" fill="#79bd9a" data-original="#79BD9A" class="active-path" data-old_color="#79bd9a" style="fill:#AAB1BA"/><path d="m144 16h64c8.835938 0 16 7.164062 16 16v16h-96v-16c0-8.835938 7.164062-16 16-16zm0 0" fill="#a8dba8" data-original="#A8DBA8" class="" data-old_color="#a8dba8" style="fill:#AAB1BA"/><path d="m153.144531 16h-9.144531c-8.835938 0-16 7.164062-16 16v16h58.023438c-17.144532-7.199219-29.335938-18.664062-32.878907-32zm0 0" fill="#79bd9a" data-original="#79BD9A" class="active-path" data-old_color="#79bd9a" style="fill:#AAB1BA"/><path d="m280 336c0 39.765625-32.234375 72-72 72s-72-32.234375-72-72 32.234375-72 72-72 72 32.234375 72 72zm0 0" fill="#a8dba8" data-original="#A8DBA8" class="" data-old_color="#a8dba8" style="fill:#AAB1BA"/><path d="m392 96v232l8 56h32l8-56v-232zm0 0" fill="#a8dba8" data-original="#A8DBA8" class="" data-old_color="#a8dba8" style="fill:#AAB1BA"/><path d="m408 96h-16v232l8 56h16l-8-56zm0 0" fill="#79bd9a" data-original="#79BD9A" class="active-path" data-old_color="#79bd9a" style="fill:#AAB1BA"/><path d="m400 384h32v24c0 8.835938-7.164062 16-16 16s-16-7.164062-16-16zm0 0" fill="#cff09e" data-original="#CFF09E" class="" data-old_color="#cff09e" style="fill:#F2EDDA"/><path d="m416 408v-24h-16v24c0 8.835938 7.164062 16 16 16 2.816406-.011719 5.578125-.777344 8-2.214844-4.9375-2.835937-7.984375-8.089844-8-13.785156zm0 0" fill="#a8dba8" data-original="#A8DBA8" class="" data-old_color="#a8dba8" style="fill:#AAB1BA"/><path d="m392 128h80v32h-80zm0 0" fill="#cff09e" data-original="#CFF09E" class="" data-old_color="#cff09e" style="fill:#F2EDDA"/><path d="m416 48c8.835938 0 16 7.164062 16 16v32h-32v-32c0-8.835938 7.164062-16 16-16zm0 0" fill="#cff09e" data-original="#CFF09E" class="" data-old_color="#cff09e" style="fill:#F2EDDA"/><path d="m392 152h48v32h-48zm0 0" fill="#79bd9a" data-original="#79BD9A" class="active-path" data-old_color="#79bd9a" style="fill:#AAB1BA"/><path d="m392 128h24v32h-24zm0 0" fill="#a8dba8" data-original="#A8DBA8" class="" data-old_color="#a8dba8" style="fill:#AAB1BA"/><path d="m424 50.222656c-2.421875-1.4375-5.183594-2.207031-8-2.222656-8.835938 0-16 7.164062-16 16v32h16v-32c.015625-5.691406 3.0625-10.941406 8-13.777344zm0 0" fill="#a8dba8" data-original="#A8DBA8" class="" data-old_color="#a8dba8" style="fill:#AAB1BA"/><g fill="#3b8686"><path d="m312 56h-32c0-13.253906-10.746094-24-24-24h-24v-8c0-13.253906-10.746094-24-24-24h-64c-13.253906 0-24 10.746094-24 24v8h-24c-13.253906 0-24 10.746094-24 24h-32c-22.082031.027344-39.9726562 17.917969-40 40v344c.0273438 22.082031 17.917969 39.972656 40 40h272c22.082031-.027344 39.972656-17.917969 40-40v-344c-.027344-22.082031-17.917969-39.972656-40-40zm-216 72h160c13.253906 0 24-10.746094 24-24h24v328h-256v-328h24c0 13.253906 10.746094 24 24 24zm40-104c0-4.417969 3.582031-8 8-8h64c4.417969 0 8 3.582031 8 8v8h-80zm-48 32c0-4.417969 3.582031-8 8-8h160c4.417969 0 8 3.582031 8 8v48c0 4.417969-3.582031 8-8 8h-160c-4.417969 0-8-3.582031-8-8zm248 384c0 13.253906-10.746094 24-24 24h-272c-13.253906 0-24-10.746094-24-24v-344c0-13.253906 10.746094-24 24-24h32v16h-32c-4.417969 0-8 3.582031-8 8v344c0 4.417969 3.582031 8 8 8h272c4.417969 0 8-3.582031 8-8v-344c0-4.417969-3.582031-8-8-8h-32v-16h32c13.253906 0 24 10.746094 24 24zm0 0" data-original="#000000" class="" data-old_color="#000000" style="fill:#51565F"/><path d="m112 88h128c4.417969 0 8-3.582031 8-8s-3.582031-8-8-8h-128c-4.417969 0-8 3.582031-8 8s3.582031 8 8 8zm0 0" data-original="#000000" class="" data-old_color="#000000" style="fill:#51565F"/><path d="m238.222656 309.089844-39.589844 39.597656-16.976562-16.96875c-2.007812-2.078125-4.984375-2.914062-7.78125-2.179688-2.796875.730469-4.980469 2.914063-5.710938 5.710938-.734374 2.800781.101563 5.773438 2.179688 7.78125l22.632812 22.625c3.125 3.121094 8.1875 3.121094 11.3125 0l45.246094-45.257812c3.03125-3.136719 2.988282-8.128907-.097656-11.214844-3.085938-3.085938-8.074219-3.128906-11.214844-.09375zm0 0" data-original="#000000" class="" data-old_color="#000000" style="fill:#51565F"/><path d="m208 256c-44.183594 0-80 35.816406-80 80s35.816406 80 80 80 80-35.816406 80-80c-.054688-44.160156-35.839844-79.945312-80-80zm0 144c-35.347656 0-64-28.652344-64-64s28.652344-64 64-64 64 28.652344 64 64c-.039062 35.328125-28.671875 63.960938-64 64zm0 0" data-original="#000000" class="" data-old_color="#000000" style="fill:#51565F"/><path d="m144 168h80c4.417969 0 8-3.582031 8-8s-3.582031-8-8-8h-80c-4.417969 0-8 3.582031-8 8s3.582031 8 8 8zm0 0" data-original="#000000" class="" data-old_color="#000000" style="fill:#51565F"/><path d="m80 208h144c4.417969 0 8-3.582031 8-8s-3.582031-8-8-8h-144c-4.417969 0-8 3.582031-8 8s3.582031 8 8 8zm0 0" data-original="#000000" class="" data-old_color="#000000" style="fill:#51565F"/><path d="m80 248h72c4.417969 0 8-3.582031 8-8s-3.582031-8-8-8h-72c-4.417969 0-8 3.582031-8 8s3.582031 8 8 8zm0 0" data-original="#000000" class="" data-old_color="#000000" style="fill:#51565F"/><path d="m112 272h-32c-4.417969 0-8 3.582031-8 8s3.582031 8 8 8h32c4.417969 0 8-3.582031 8-8s-3.582031-8-8-8zm0 0" data-original="#000000" class="" data-old_color="#000000" style="fill:#51565F"/><path d="m96 312h-16c-4.417969 0-8 3.582031-8 8s3.582031 8 8 8h16c4.417969 0 8-3.582031 8-8s-3.582031-8-8-8zm0 0" data-original="#000000" class="" data-old_color="#000000" style="fill:#51565F"/><path d="m256 208h16c4.417969 0 8-3.582031 8-8s-3.582031-8-8-8h-16c-4.417969 0-8 3.582031-8 8s3.582031 8 8 8zm0 0" data-original="#000000" class="" data-old_color="#000000" style="fill:#51565F"/><path d="m280 160c0 4.417969-3.582031 8-8 8s-8-3.582031-8-8 3.582031-8 8-8 8 3.582031 8 8zm0 0" data-original="#000000" class="" data-old_color="#000000" style="fill:#51565F"/><path d="m472 120h-24v-24c0-4.417969-3.582031-8-8-8v-24c0-13.253906-10.746094-24-24-24s-24 10.746094-24 24v24c-4.417969 0-8 3.582031-8 8v232c0 .214844.105469.390625.121094.601562.015625.207032-.066406.351563-.042969.535157l7.921875 55.421875v23.441406c0 13.253906 10.746094 24 24 24s24-10.746094 24-24v-23.441406l7.921875-55.421875c0-.183594-.058594-.351563-.042969-.535157.015625-.1875.121094-.386718.121094-.601562v-160h16v72c0 4.417969 3.582031 8 8 8s8-3.582031 8-8v-112c0-4.417969-3.582031-8-8-8zm-8 32h-64v-16h64zm-38.9375 224h-18.125l-5.714844-40h29.554688zm-25.0625-256v-16h32v16zm8-56c0-4.417969 3.582031-8 8-8s8 3.582031 8 8v24h-16zm16 344c0 4.417969-3.582031 8-8 8s-8-3.582031-8-8v-16h16zm8-88h-32v-152h32zm0 0" data-original="#000000" class="" data-old_color="#000000" style="fill:#51565F"/></g></g> </svg>
